<svg focusable="false" viewBox="0 0 24 24" width="24" height="24" aria-hidden="true" class="pip-svg-icon pip-btn__icon"><path d="M11 16.9766c.3294.0154.663.0233.9999.0233 2.2351 0 4.3234-.3458 6-.9495 1.7881-.6438 4-1.8975 4-4.0505 0-1.9568-1.8939-3.1985-3.5146-3.864l-1.5606 1.5606c.9375.2978 3.0752 1.0327 3.0752 2.3034 0 .9329-1.2789 1.5728-2 1.8958-1.8614.8335-3.9767 1.1042-6 1.1042-.3392 0-.6729-.0088-.9999-.0257v-1.9743l-3 3 3 3v-2.0233zm2-9.9532A21.3914 21.3914 0 0 0 12 7c-2.235 0-4.3234.3457-6 .9494C4.212 8.5932 2 9.847 2 12c0 1.9568 1.894 3.1984 3.5147 3.8639l1.5605-1.5605C6.1377 14.0057 4 13.2707 4 12.0001c0-.9329 1.279-1.5729 2-1.8958 1.8614-.8336 3.9768-1.1042 6-1.1042.3392 0 .6729.0087 1 .0257V11l3-3-3-3v2.0234z"></path></svg>