<svg width="26" height="26" viewBox="0 0 26 26" fill="none" xmlns="http://www.w3.org/2000/svg">
<g clip-path="url(#clip0_65_733)">
<path d="M25.5164 9.98804C25.4628 9.82387 25.3209 9.70414 25.1499 9.6792L16.9458 8.4869L13.2769 1.05287C13.2007 0.897764 13.0428 0.799805 12.8705 0.799805C12.6982 0.799805 12.5399 0.897764 12.4642 1.05287L8.79476 8.48736L0.590652 9.67965C0.419676 9.7046 0.278179 9.82387 0.224211 9.9885C0.171149 10.1522 0.21514 10.3327 0.33895 10.4529L6.27593 16.2398L4.87411 24.4112C4.84509 24.5813 4.91493 24.7532 5.05416 24.8548C5.19429 24.9573 5.37978 24.9704 5.53171 24.8892L12.8705 21.0316L20.2084 24.8892C20.2746 24.9241 20.3476 24.9414 20.4197 24.9414C20.5136 24.9414 20.607 24.9124 20.6864 24.8548C20.8261 24.7532 20.8959 24.5813 20.8665 24.4112L19.4651 16.2402L25.4021 10.4529C25.5254 10.3318 25.5699 10.1518 25.5164 9.98804Z" fill="#BDBDBD"/>
</g>
<defs>
<clipPath id="clip0_65_733">
<rect width="25.3366" height="25.3366" fill="white" transform="translate(0.201996 0.202148)"/>
</clipPath>
</defs>
</svg>
